<svg height="512" viewBox="0 0 60 60" width="512" xmlns="http://www.w3.org/2000/svg"><g id="Page-1" fill="none" fill-rule="evenodd"><g id="053---Feeding-Birds" fill="rgb(0,0,0)" fill-rule="nonzero"><path id="Shape" d="m48.1.584c-.7805395-.77810178-2.0434605-.77810178-2.824 0l-3.138 3.136c-.5004371.50519598-.6949947 1.23811851-.511 1.925l-1.637 1.637c-.342819.34260541-.7983848.54906697-1.282.581l-8.636.575c-1.7253064.09599703-3.0589009 1.55099198-3.0045974 3.2781135.0543034 1.7271215 1.4766682 3.0954647 3.2045974 3.0828865l2.232-.03-5.89 5.89c-.6889316.6885901-1.0006679 1.6687949-.8360548 2.6288395.1646132.9600446.7850826 1.7804095 1.6640548 2.2001605l-.828.828c-.753496.7538577-1.0504268 1.8509063-.7800235 2.881896.2704033 1.0309896 1.0675332 1.841093 2.0940235 2.128104-.2874361 1.3015277.3183287 2.6366283 1.4870572 3.2774618s2.620122.4337075 3.5629428-.5084618l.144-.145c.4198408.8785953 1.2399933 1.4987652 2.1997352 1.6633605.9597418.1645953 1.939668-.1468617 2.6282648-.8353605l16.406-16.4c.6873159.1952793 1.4263873-.0011924 1.926-.512l3.134-3.133c.7787666-.780655.7787666-2.044345 0-2.825zm-11.565 32.78c-.3958895.3771429-1.0181105.3771429-1.414 0-.3903819-.3904999-.3903819-1.0235001 0-1.414l6.191-6.192c.3698906-.3933203.3607656-1.0092425-.0206142-1.3914327-.3813799-.3821901-.9972814-.3926223-1.3913858-.0235673l-6.192 6.193-2.143 2.145c-.3907415.3907414-1.0242585.3907414-1.415 0-.3907414-.3907415-.3907414-1.0242585 0-1.415l.707-.707 7.63-7.63c.3789722-.3923789.3735524-1.0160848-.0121814-1.4018186s-1.0094397-.3911536-1.4018186-.0121814l-7.63 7.63c-.2527654.2525868-.6210837.3511378-.966213.25853-.3451292-.0926079-.6146361-.3623054-.707-.7075-.0923638-.3451947.0064476-.7134432.259213-.96603l2.825-2.824 4.8-4.8c.2599566-.2510745.3642126-.6228779.2726972-.9725073-.0915155-.3496295-.3645604-.6226744-.7141899-.7141899-.3496294-.0915154-.7214328.0127406-.9725073.2726972l-4.8 4.8c-.2525868.2527654-.6208353.3515768-.96603.259213-.3451946-.0923639-.6148921-.3618708-.7075-.707-.0926078-.3451293.0059432-.7134476.25853-.966213l7.337-7.337h2.414c.5522847 0 1-.4477153 1-1s-.4477153-1-1-1h-2.839l-4.679.063c-.6471064.0079951-1.1805353-.5054664-1.1972217-1.152407-.0166864-.6469405.4895636-1.1872183 1.1362217-1.212593l8.643-.575c.966274-.06463591 1.8761049-.47832464 2.56-1.164l1.439-1.439 9.9 9.9zm21.465-20.051-3.138 3.134-2.61-2.611-8.7-8.7 3.13-3.136 11.318 11.312z"/><path id="Shape" d="m26.31 37.242c-.5246748.1116-.9633025.4694278-1.178.961-.4778289 1.0915924-1.5564068 1.796907-2.748 1.797h-5.384c-.5522847 0-1-.4477153-1-1v-3c.0091312-2.7869378-1.9019618-5.2132558-4.6134846-5.8572663-2.71152283-.6440105-5.50951791.6638576-6.7545154 3.1572663-.74524511.2882817-1.52251508.4857049-2.315.588-1.32561622.1899513-2.31169279 1.3228541-2.317 2.662-.00082563 1.3272085.97506724 2.4527468 2.289 2.64l2.95.423c.28077781.365595.60292059.6974692.96.989-2.142045 1.6049638-3.33843057 4.1756725-3.187 6.848.30992324 4.3067947 3.93065409 7.6211155 8.248 7.55h.74v3h-2c-.55228475 0-1 .4477153-1 1s.44771525 1 1 1h2c1.1045695 0 2-.8954305 2-2v-3h5v3h-2c-.5522847 0-1 .4477153-1 1s.4477153 1 1 1h2c1.1045695 0 2-.8954305 2-2v-3.015c5.2538105-.1829492 9.5427994-4.2619756 9.989-9.5.141983-2.9587868-1.0351059-5.8282615-3.214-7.835-.3935741-.3649911-.9394181-.5170077-1.465-.408zm-23.747-.033c-.32895913-.0501197-.56980754-.3363143-.563-.669.0067143-.3372327.25625184-.6201828.59-.669.48226711-.0640347.96065399-.1545043 1.433-.271-.04269797.6177044.00991782 1.2383009.156 1.84zm10.346 14.645c-.6684666-.7317885-.9929649-1.7140142-.892-2.7.2431046-1.8341841 1.826175-3.1924551 3.676-3.154h7.207l.09.125-.78 2.342c-1.0963698 2.7433056-3.755731 4.5398607-6.71 4.533-.9862679-.0012411-1.9265612-.4171331-2.591-1.146zm8.4 1.115c1.2912974-.988401 2.2647228-2.3334663 2.8-3.869l.781-2.342c.2109228-.6392553.1026098-1.3408788-.2912695-1.8867678-.3938794-.5458891-1.0255783-.8698701-1.6987305-.8712322h-7.207c-2.8777053-.030958-5.3186852 2.1064066-5.668 4.963-.13667176 1.4570157.3099682 2.9087754 1.242 4.037h-.007c-3.25503151.0708124-5.99867085-2.412991-6.251-5.659-.11401806-2.0059025.78351963-3.9357399 2.391-5.141.48107306-.3575589.77063957-.9167726.785-1.516.01302666-.618422-.25913072-1.208465-.738-1.6-1.17775877-.9720924-1.6992586-2.5299538-1.34410137-4.0151955.35515723-1.4852416 1.52499076-2.6386643 3.01510137-2.9728045.29299321-.0645858.59197875-.0981044.892-.1.9137806-.0021456 1.7999388.3131528 2.507.892.9406531.758788 1.4861362 1.9034564 1.483 3.112v3c0 1.6568542 1.3431458 3 3 3h5.384c1.8117054-.0001216 3.4816124-.9802595 4.365-2.562 1.5375219 1.5886563 2.3490649 3.7427565 2.242 5.951-.3579612 4.0666457-3.6090123 7.2753654-7.68 7.58z"/><circle id="Oval" cx="9" cy="35" r="1"/><path id="Shape" d="m42.707 16.707 1-1c.3789722-.3923789.3735524-1.0160848-.0121814-1.4018186s-1.0094397-.3911536-1.4018186-.0121814l-1 1c-.2599566.2510745-.3642126.6228779-.2726972.9725073.0915155.3496295.3645604.6226744.7141899.7141899.3496294.0915154.7214328-.0127406.9725073-.2726972z"/><path id="Shape" d="m43 19c-.5522847 0-1 .4477153-1 1v1c0 .5522847.4477153 1 1 1s1-.4477153 1-1v-1c0-.5522847-.4477153-1-1-1z"/><path id="Shape" d="m25 18c0-.5522847-.4477153-1-1-1h-1c-.5522847 0-1 .4477153-1 1s.4477153 1 1 1h1c.5522847 0 1-.4477153 1-1z"/><path id="Shape" d="m20.707 22.707c.3789722-.3923789.3735524-1.0160848-.0121814-1.4018186s-1.0094397-.3911536-1.4018186-.0121814l-1 1c-.2599566.2510745-.3642126.6228779-.2726972.9725073.0915155.3496295.3645604.6226744.7141899.7141899.3496294.0915154.7214328-.0127406.9725073-.2726972z"/><path id="Shape" d="m20 28c.2651948-.0000566.5195073-.1054506.707-.293l1-1c.3789722-.3923789.3735524-1.0160848-.0121814-1.4018186s-1.0094397-.3911536-1.4018186-.0121814l-1 1c-.2859079.2859943-.3714219.7160366-.216678 1.0896546.1547439.3736179.5192821.6172591.923678.6173454z"/><path id="Shape" d="m21 33c.5522847 0 1-.4477153 1-1v-1c0-.5522847-.4477153-1-1-1s-1 .4477153-1 1v1c0 .5522847.4477153 1 1 1z"/><path id="Shape" d="m22 37c.2651948-.0000566.5195073-.1054506.707-.293l1-1c.3789722-.3923789.3735524-1.0160848-.0121814-1.4018186s-1.0094397-.3911536-1.4018186-.0121814l-1 1c-.2859079.2859943-.3714219.7160366-.216678 1.0896546.1547439.3736179.5192821.6172591.923678.6173454z"/><path id="Shape" d="m34.707 38.707c.3789722-.3923789.3735524-1.0160848-.0121814-1.4018186s-1.0094397-.3911536-1.4018186-.0121814l-1 1c-.2599566.2510745-.3642126.6228779-.2726972.9725073.0915155.3496295.3645604.6226744.7141899.7141899.3496294.0915154.7214328-.0127406.9725073-.2726972z"/><path id="Shape" d="m35.447 42.105c-.2373497-.1186659-.5121326-.1381283-.7638386-.0541012-.251706.084027-.4596935.2646527-.5781614.5021012l-1 2c-.2468713.4942948-.0462948 1.0951287.448 1.342.4942949.2468712 1.0951287.0462948 1.342-.448l1-2c.1186659-.2373497.1381283-.5121326.0541012-.7638386-.084027-.251706-.2646527-.4596935-.5021012-.5781614z"/><path id="Shape" d="m13.553 25.105-2 1c-.4942949.2468713-.6948713.8477051-.448 1.342s.8477051.6948713 1.342.448l2-1c.4942949-.2468713.6948713-.8477051.448-1.342s-.8477051-.6948713-1.342-.448z"/><path id="Shape" d="m8.293 23.293-1 1c-.25995658.2510745-.3642126.6228779-.27269716.9725073.09151544.3496295.3645604.6226744.71418984.7141899.34962943.0915154.72143285-.0127406.97250732-.2726972l1-1c.3789722-.3923789.3735524-1.0160848-.01218142-1.4018186-.3857338-.3857338-1.00943969-.3911536-1.40181858-.0121814z"/><path id="Shape" d="m14.707 20.293-1-1c-.3923789-.3789722-1.0160848-.3735524-1.4018186.0121814s-.3911536 1.0094397-.0121814 1.4018186l1 1c.3923789.3789722 1.0160848.3735524 1.4018186-.0121814s.3911536-1.0094397.0121814-1.4018186z"/></g></g></svg>